<svg width="36" height="17" viewBox="0 0 36 17" fill="none" xmlns="http://www.w3.org/2000/svg">
<path d="M1.34 16.74C1.04667 16.5667 0.86 16.38 0.78 16.18C0.7 15.9933 0.66 15.8333 0.66 15.7C0.66 15.3267 0.793333 14.82 1.06 14.18C1.34 13.54 1.70667 12.8133 2.16 12C2.62667 11.1733 3.14 10.32 3.7 9.44C3.20667 9.4 2.78667 9.37333 2.44 9.36C2.09333 9.34667 1.79333 9.34 1.54 9.34H0.84C0.986667 8.95333 1.24 8.68667 1.6 8.54C1.97333 8.38 2.41333 8.3 2.92 8.3C3.14667 8.3 3.38 8.31333 3.62 8.34C3.86 8.36667 4.10667 8.4 4.36 8.44C5.04 7.41333 5.73333 6.42 6.44 5.46C7.16 4.48667 7.82667 3.62667 8.44 2.88C9.06667 2.12 9.58667 1.54667 10 1.16C10.3867 0.786666 10.7067 0.599999 10.96 0.599999C11.1067 0.599999 11.2667 0.659999 11.44 0.779999C11.6267 0.886666 11.82 1.04 12.02 1.24C11.8867 1.34667 11.7133 1.63333 11.5 2.1C11.3 2.55333 11.08 3.12667 10.84 3.82C10.6133 4.51333 10.3867 5.27333 10.16 6.1C9.93333 6.92667 9.72 7.77333 9.52 8.64C9.33333 9.49333 9.18 10.3067 9.06 11.08C8.95333 11.8533 8.9 12.5333 8.9 13.12C8.9 13.6267 8.95333 14.02 9.06 14.3C9.18 14.58 9.37333 14.72 9.64 14.72C9.98667 14.72 10.38 14.48 10.82 14C11.26 13.52 11.74 12.7733 12.26 11.76L12.46 11.96C12.06 13.0267 11.5467 13.9 10.92 14.58C10.3067 15.26 9.66667 15.6 9 15.6C8.45333 15.6 8.05333 15.36 7.8 14.88C7.56 14.3867 7.44 13.7333 7.44 12.92C7.44 12.4933 7.46667 12.0267 7.52 11.52C7.58667 11.0133 7.67333 10.4867 7.78 9.94C7.19333 9.84667 6.65333 9.77333 6.16 9.72C5.68 9.65333 5.23333 9.59333 4.82 9.54C4.19333 10.7 3.58 11.8933 2.98 13.12C2.39333 14.3467 1.84667 15.5533 1.34 16.74ZM7.92 9.24C8.12 8.36 8.35333 7.47333 8.62 6.58C8.88667 5.67333 9.16667 4.81333 9.46 4C9.76667 3.18667 10.0533 2.47333 10.32 1.86C9.90667 2.11333 9.42667 2.56667 8.88 3.22C8.34667 3.86 7.78 4.64667 7.18 5.58C6.58 6.5 5.96667 7.51333 5.34 8.62C5.79333 8.71333 6.24 8.82 6.68 8.94C7.13333 9.04667 7.54667 9.14667 7.92 9.24ZM14.0359 15.2C13.8626 15.2 13.7093 15.1533 13.5759 15.06C13.4559 14.98 13.3959 14.8467 13.3959 14.66C13.3959 14.5133 13.4559 14.38 13.5759 14.26C13.6959 14.1267 13.8426 14.0267 14.0159 13.96C14.2026 13.88 14.3826 13.84 14.5559 13.84C14.7159 13.84 14.8426 13.8733 14.9359 13.94C15.0293 14.0067 15.0759 14.1333 15.0759 14.32C15.0759 14.4533 15.0226 14.5867 14.9159 14.72C14.8226 14.8533 14.6959 14.9667 14.5359 15.06C14.3759 15.1533 14.2093 15.2 14.0359 15.2ZM25.2486 16.74C24.9153 16.74 24.6019 16.6467 24.3086 16.46C24.0153 16.2733 23.8686 16.0333 23.8686 15.74C23.8686 15.5933 23.9019 15.4133 23.9686 15.2C24.0353 15 24.0953 14.8133 24.1486 14.64C24.5753 13.3333 24.9753 12.1133 25.3486 10.98C25.7219 9.84667 26.0953 8.74667 26.4686 7.68C26.8419 6.61333 27.2353 5.54667 27.6486 4.48C28.0753 3.41333 28.5486 2.3 29.0686 1.14C28.5619 1.23333 28.1086 1.37333 27.7086 1.56C27.3219 1.73333 27.0086 1.89333 26.7686 2.04C26.5286 2.17333 26.3686 2.24 26.2886 2.24C26.2353 2.24 26.1553 2.21333 26.0486 2.16C25.9553 2.09333 25.8686 2.02 25.7886 1.94C25.7086 1.84667 25.6686 1.76667 25.6686 1.7C26.0153 1.55333 26.4219 1.39333 26.8886 1.22C27.3686 1.04667 27.8819 0.9 28.4286 0.779999C28.9753 0.659999 29.5286 0.599999 30.0886 0.599999C30.6753 0.599999 31.2686 0.68 31.8686 0.84C32.4819 0.999999 33.0419 1.24667 33.5486 1.58C34.0553 1.9 34.4619 2.3 34.7686 2.78C35.0753 3.26 35.2286 3.82 35.2286 4.46C35.2286 5.15333 35.0753 5.75333 34.7686 6.26C34.4619 6.75333 34.0553 7.17333 33.5486 7.52C33.0419 7.85333 32.4953 8.12667 31.9086 8.34C31.3219 8.54 30.7353 8.7 30.1486 8.82C29.5753 8.92667 29.0619 9 28.6086 9.04C28.1553 9.06667 27.8219 9.08 27.6086 9.08H27.4086C27.0086 10.4533 26.6219 11.8067 26.2486 13.14C25.8886 14.4733 25.5553 15.6733 25.2486 16.74ZM27.4886 8.76C28.2219 8.72 28.9619 8.6 29.7086 8.4C30.4686 8.2 31.1619 7.91333 31.7886 7.54C32.4153 7.15333 32.9219 6.68 33.3086 6.12C33.6953 5.54667 33.8886 4.88 33.8886 4.12C33.8886 3.4 33.7153 2.81333 33.3686 2.36C33.0353 1.90667 32.5886 1.57333 32.0286 1.36C31.4819 1.13333 30.8953 1.02 30.2686 1.02C29.7753 1.99333 29.2953 3.16 28.8286 4.52C28.3619 5.88 27.9153 7.29333 27.4886 8.76ZM33.7906 15.2C33.6173 15.2 33.464 15.1533 33.3306 15.06C33.2106 14.98 33.1506 14.8467 33.1506 14.66C33.1506 14.5133 33.2106 14.38 33.3306 14.26C33.4506 14.1267 33.5973 14.0267 33.7706 13.96C33.9573 13.88 34.1373 13.84 34.3106 13.84C34.4706 13.84 34.5973 13.8733 34.6906 13.94C34.784 14.0067 34.8306 14.1333 34.8306 14.32C34.8306 14.4533 34.7773 14.5867 34.6706 14.72C34.5773 14.8533 34.4506 14.9667 34.2906 15.06C34.1306 15.1533 33.964 15.2 33.7906 15.2Z" fill="black"/>
</svg>
 